<svg xmlns="http://www.w3.org/2000/svg" xmlns:xlink="http://www.w3.org/1999/xlink" id="_x30_" width="37.061" height="37.061" x="0" y="0" enable-background="new 0 0 37.061 37.061" version="1.1" viewBox="0 0 37.061 37.061" xml:space="preserve"><g><g><path fill="#FFF" d="M18.53,3.029c-8.561,0-15.5,6.94-15.5,15.5c0,8.563,6.939,15.502,15.5,15.502 c8.563,0,15.5-6.939,15.5-15.502C34.03,9.97,27.091,3.029,18.53,3.029z M21.465,24.925l-2.607-4.87l-2.604,4.87h-3.164l4.11-6.811 l-4.01-6.698h3.138l2.493,4.787l2.533-4.787h3.154L20.5,18.115l4.24,6.811H21.465z"/></g></g><g opacity="0"><path fill="#FFF" d="M36.961,0.1v36.861H0.1V0.1H36.961 M37.061,0H0v37.06h37.061V0L37.061,0z"/></g></svg>