<svg xmlns="http://www.w3.org/2000/svg" xmlns:xlink="http://www.w3.org/1999/xlink" id="Ebene_1" width="21.962" height="21.959" x="0" y="0" enable-background="new 0 0 21.962 21.959" version="1.1" viewBox="0 0 21.962 21.959" xml:space="preserve"><path fill="#777" d="M17.71,1.5c1.518,0,2.752,1.234,2.752,2.752v13.455c0,1.518-1.234,2.752-2.752,2.752H4.252	c-1.518,0-2.752-1.234-2.752-2.752V4.252C1.5,2.734,2.734,1.5,4.252,1.5H17.71 M17.71,0H4.252C1.914,0,0,1.914,0,4.252v13.455	c0,2.339,1.914,4.252,4.252,4.252H17.71c2.339,0,4.252-1.913,4.252-4.252V4.252C21.962,1.914,20.049,0,17.71,0L17.71,0z"/><g><g><rect width="1.5" height="19.8" x="10.232" y="1.079" fill="#777" transform="matrix(0.7071 0.7071 -0.7071 0.7071 10.9801 -4.5494)"/></g><g><rect width="1.5" height="19.8" x="10.232" y="1.079" fill="#777" transform="matrix(0.7071 0.7071 -0.7071 0.7071 10.9801 -4.5494)"/></g><g><rect width="19.8" height="1.5" x="1.082" y="10.23" fill="#777" transform="matrix(0.7071 0.7071 -0.7071 0.7071 10.9793 -4.5494)"/></g></g></svg>